<svg width="30" height="30" viewBox="0 0 30 30" fill="none" xmlns="http://www.w3.org/2000/svg">
<g clip-path="url(#clip0)">
<path d="M12.237 28.848C10.9313 28.848 9.62572 28.3627 8.62988 27.3912C8.15881 26.9316 7.78488 26.3964 7.51845 25.8005C6.82921 24.2587 5.60085 23.0298 4.05968 22.3403C3.46403 22.0738 2.92912 21.6997 2.46974 21.2284C0.523109 19.2311 0.529093 15.9871 2.4831 13.9967C3.27807 13.1869 4.28976 12.6711 5.40873 12.505C6.04532 12.4104 6.61138 12.1264 7.04566 11.6837L7.07935 11.6497C8.29042 10.4381 10.0178 9.90772 11.9431 10.1564C13.7884 10.3947 15.6074 11.3291 17.0652 12.7875C18.523 14.2459 19.457 16.0657 19.6952 17.9117C19.9437 19.838 19.4136 21.566 18.2025 22.7776L18.1719 22.808C17.7281 23.2445 17.444 23.8114 17.35 24.4479C17.1845 25.5681 16.669 26.5809 15.8595 27.3768C14.8622 28.3573 13.5495 28.848 12.237 28.848ZM11.0441 11.7551C9.96408 11.7551 8.97694 12.1033 8.25484 12.8257L8.23251 12.8483C7.54227 13.552 6.65033 14.002 5.65272 14.1501C4.89443 14.2627 4.20852 14.6126 3.66907 15.1621C2.34362 16.5122 2.33952 18.7126 3.65992 20.0673C3.97223 20.3877 4.33509 20.6417 4.73833 20.8221C6.65327 21.6789 8.17953 23.2058 9.03596 25.1216C9.21633 25.5251 9.47018 25.8881 9.79042 26.2005C11.1449 27.5218 13.3448 27.5174 14.6943 26.1907C15.2436 25.6506 15.5933 24.9639 15.7055 24.2048C15.8529 23.2072 16.3026 22.3143 17.0061 21.6225L17.027 21.6018C17.8655 20.7629 18.2275 19.5281 18.0464 18.1248C17.855 16.6413 17.089 15.1635 15.8897 13.9636C14.4461 12.5193 12.6435 11.7551 11.0441 11.7551Z" fill="black" stroke="black" stroke-width="0.486981"/>
<path d="M17.7725 9.18617C16.8137 9.18617 15.9551 8.84778 15.3175 8.20997C14.5734 7.46561 14.2371 6.41978 14.3703 5.26513C14.4953 4.18238 15.0264 3.12363 15.8658 2.28387C16.7051 1.44415 17.7634 0.912842 18.8457 0.787775C19.9999 0.654614 21.0452 0.991064 21.7893 1.73537C22.5334 2.47978 22.8698 3.52561 22.7366 4.68026C22.6116 5.76301 22.0805 6.82176 21.2411 7.66147C20.4018 8.50124 19.3434 9.03255 18.2611 9.15756C18.0958 9.17669 17.9327 9.18617 17.7725 9.18617ZM19.3269 2.42285C19.2322 2.42285 19.1353 2.4285 19.0364 2.43992C18.3251 2.52208 17.6165 2.88431 17.0413 3.45981C16.466 4.03536 16.1039 4.74424 16.0218 5.45583C15.9479 6.09558 16.1153 6.656 16.493 7.03392C16.8708 7.41184 17.4311 7.5792 18.0704 7.50541C18.7817 7.42326 19.4903 7.06103 20.0656 6.48548C20.6409 5.90992 21.003 5.2011 21.0851 4.4895C21.1589 3.84975 20.9915 3.28934 20.6138 2.91142C20.2945 2.59193 19.8447 2.42285 19.3269 2.42285Z" fill="black" stroke="black" stroke-width="0.486981"/>
<path d="M6.61237 9.60925C5.65355 9.60925 4.79496 9.27085 4.15743 8.6331C3.41333 7.88869 3.07691 6.84291 3.21018 5.68826C3.33514 4.60551 3.86623 3.54677 4.70564 2.707C5.54499 1.86729 6.60334 1.33597 7.68557 1.21091C8.8399 1.07763 9.88512 1.41419 10.6292 2.1585C11.3733 2.90291 11.7097 3.94874 11.5764 5.10339C11.4514 6.18614 10.9204 7.24489 10.0809 8.0846C9.24159 8.92437 8.18324 9.45568 7.10096 9.5807C6.93577 9.59982 6.77263 9.60925 6.61237 9.60925ZM8.16679 2.84598C8.07208 2.84598 7.97517 2.85163 7.87631 2.86305C7.16501 2.94521 6.45644 3.30744 5.88119 3.88294C5.30582 4.45855 4.9438 5.16743 4.86163 5.87902C4.78781 6.51877 4.95516 7.07919 5.33292 7.45711C5.71062 7.83497 6.27069 8.00255 6.91033 7.92855C7.62162 7.84639 8.3302 7.48416 8.90551 6.90861C9.48082 6.33305 9.84289 5.62417 9.92496 4.91263C9.99882 4.27289 9.83142 3.71247 9.45372 3.33455C9.13437 3.01506 8.68457 2.84598 8.16679 2.84598Z" fill="black" stroke="black" stroke-width="0.486981"/>
<path d="M24.3799 15.7946C23.4212 15.7946 22.5625 15.4562 21.925 14.8184C21.1809 14.074 20.8445 13.0282 20.9778 11.8736C21.1027 10.7908 21.6338 9.7321 22.4732 8.89233C23.3126 8.05262 24.3709 7.52131 25.4532 7.3963C26.6073 7.26275 27.6527 7.59953 28.3968 8.34389C29.1409 9.08825 29.4773 10.1341 29.344 11.2887C29.2191 12.3715 28.688 13.4302 27.8486 14.27C27.0092 15.1097 25.9509 15.641 24.8686 15.7661C24.7033 15.7851 24.5402 15.7946 24.3799 15.7946ZM25.9344 9.03132C25.8397 9.03132 25.7427 9.03697 25.6439 9.04839C24.9326 9.13055 24.224 9.49278 23.6487 10.0683C23.0734 10.6439 22.7113 11.3527 22.6292 12.0643C22.5554 12.704 22.7227 13.2645 23.1005 13.6424C23.4783 14.0203 24.0385 14.1879 24.6779 14.1138C25.3892 14.0317 26.0978 13.6694 26.6731 13.0939C27.2484 12.5184 27.6105 11.8095 27.6925 11.0979C27.7664 10.4582 27.599 9.89775 27.2213 9.51983C26.9019 9.20035 26.4522 9.03132 25.9344 9.03132Z" fill="black" stroke="black" stroke-width="0.486981"/>
<path d="M23.8194 26.8226C22.8606 26.8226 22.002 26.4842 21.3645 25.8465C20.6204 25.1021 20.2839 24.0563 20.4172 22.9017C20.5422 21.8189 21.0733 20.7602 21.9127 19.9204C22.752 19.0807 23.8104 18.5494 24.8927 18.4244C26.0467 18.2909 27.0921 18.6276 27.8362 19.3719C28.5803 20.1163 28.9168 21.1621 28.7835 22.3168C28.6585 23.3995 28.1274 24.4583 27.2881 25.298C26.4487 26.1378 25.3903 26.6691 24.3081 26.7941C24.1428 26.8132 23.9797 26.8226 23.8194 26.8226ZM25.3738 20.0594C25.2791 20.0594 25.1822 20.0651 25.0833 20.0765C24.372 20.1587 23.6635 20.5209 23.0882 21.0964C22.5129 21.672 22.1508 22.3808 22.0687 23.0924C21.9948 23.7322 22.1622 24.2926 22.5399 24.6705C22.9176 25.0484 23.478 25.2159 24.1174 25.1419C24.8287 25.0598 25.5372 24.6975 26.1125 24.1221C26.6878 23.5465 27.0499 22.8376 27.132 22.126C27.2058 21.4863 27.0384 20.9259 26.6607 20.5479C26.3414 20.2285 25.8917 20.0594 25.3738 20.0594Z" fill="black" stroke="black" stroke-width="0.486981"/>
</g>
<defs>
<clipPath id="clip0">
<rect width="29.2034" height="29.2034" fill="white" transform="translate(0.589844 0.201904)"/>
</clipPath>
</defs>
</svg>
