<svg width="30" height="31" viewBox="0 0 30 31" fill="none" xmlns="http://www.w3.org/2000/svg">
<g clip-path="url(#clip0)">
<path d="M29.3315 9.10315L27.948 8.30878V1.80365C27.948 1.32328 27.5585 0.933838 27.0781 0.933838H22.4526C21.9722 0.933838 21.5828 1.32328 21.5828 1.80365V4.65433L15.3774 1.09156C15.1092 0.937665 14.7794 0.937665 14.5111 1.09156L0.515213 9.12716C0.245105 9.28228 0.0785066 9.57001 0.0785066 9.88152V13.9407C0.0585008 14.5887 0.829448 15.035 1.38143 14.695L1.95447 14.366V29.7538C1.95447 30.2341 2.34391 30.6236 2.82429 30.6236H27.0643C27.5447 30.6236 27.9342 30.2341 27.9342 29.7538V14.366L28.4654 14.671C28.7346 14.8256 29.0656 14.8249 29.3343 14.6695C29.6029 14.5139 29.7682 14.2271 29.7682 13.9167V9.85758C29.7682 9.54601 29.6016 9.25827 29.3315 9.10315ZM23.3224 2.67347H26.2083V7.31L23.3224 5.65306V2.67347ZM12.3186 28.8839H7.13492V20.1804H12.3186V28.8839ZM26.1945 28.8839H14.0583V19.3106C14.0583 18.8302 13.6688 18.4408 13.1884 18.4408H6.26511C5.78474 18.4408 5.39529 18.8302 5.39529 19.3106V28.884H3.69404V13.3672L14.9443 6.90809L26.1945 13.3672V28.8839ZM28.0286 12.4143L15.3774 5.15071C15.1092 4.99681 14.7794 4.99681 14.5111 5.15071L1.81814 12.4383V10.3851L14.9443 2.84894L28.0286 10.3611V12.4143Z" fill="black"/>
<path d="M15.7988 19.2966V26.2835C15.7988 26.7639 16.1883 27.1533 16.6686 27.1533H23.5977C24.078 27.1533 24.4675 26.7639 24.4675 26.2835V19.2966C24.4675 18.8162 24.078 18.4268 23.5977 18.4268H16.6686C16.1883 18.4268 15.7988 18.8162 15.7988 19.2966ZM17.5385 23.6457H19.2781V25.4137H17.5385V23.6457ZM21.0177 25.4138V23.6457H22.7278V25.4138H21.0177ZM22.7278 21.906H21.0177V20.1664H22.7278V21.906ZM19.2781 20.1664V21.906H17.5385V20.1664H19.2781Z" fill="black"/>
<path d="M12.3125 12.5051C12.3125 13.9452 13.4841 15.1169 14.9243 15.1169C16.3644 15.1169 17.536 13.9452 17.536 12.5051C17.536 11.065 16.3644 9.89331 14.9243 9.89331C13.4841 9.89331 12.3125 11.065 12.3125 12.5051ZM15.7964 12.5051C15.7964 12.986 15.4052 13.3772 14.9243 13.3772C14.4434 13.3772 14.0521 12.986 14.0521 12.5051C14.0521 12.0242 14.4434 11.6329 14.9243 11.6329C15.4052 11.6329 15.7964 12.0242 15.7964 12.5051Z" fill="black"/>
</g>
<defs>
<clipPath id="clip0">
<rect width="29.6901" height="29.6901" fill="white" transform="translate(0.078125 0.933838)"/>
</clipPath>
</defs>
</svg>
