<svg width="33" height="33" viewBox="0 0 33 33" fill="none" xmlns="http://www.w3.org/2000/svg">
<g clip-path="url(#clip0)">
<path d="M17.4092 13.5533V15.1685C17.4092 15.6814 17.5119 16.1118 17.7138 16.4471C17.9927 16.9098 18.4506 17.175 18.9704 17.175C19.4797 17.175 19.9858 16.9269 20.4747 16.4382L25.8092 11.1037C26.9803 9.93246 26.9803 8.02668 25.809 6.85542L20.4747 1.5209C19.9858 1.03196 19.4797 0.78418 18.9704 0.78418C18.1935 0.78418 17.4092 1.40473 17.4092 2.79069V4.25752C9.83558 4.7048 3.56582 10.517 2.63401 18.1266C2.5818 18.5516 2.82346 18.9584 3.22172 19.116C3.33446 19.1606 3.45186 19.1822 3.56778 19.1822C3.86139 19.1822 4.14618 19.0447 4.32754 18.7969C6.82692 15.3819 10.8399 13.3431 15.0623 13.3431C15.8448 13.3431 16.6313 13.4136 17.4092 13.5533ZM5.35519 14.9756C7.40361 9.74399 12.5019 6.11208 18.3503 6.11208C18.8701 6.11208 19.2914 5.69078 19.2914 5.17095V2.99975L24.4782 8.18623C24.9154 8.62371 24.9154 9.33544 24.4782 9.77291L19.2914 14.9594V12.7879C19.2914 12.3517 18.9917 11.9725 18.567 11.8721C17.4136 11.5993 16.2343 11.4608 15.0623 11.4608C12.6359 11.4608 10.2223 12.048 8.08225 13.1593C7.11244 13.6627 6.19681 14.2739 5.35519 14.9756Z" fill="black"/>
<path d="M30.122 14.5761C29.7237 14.4185 29.2691 14.5498 29.0161 14.8954C26.5168 18.3102 22.504 20.349 18.2814 20.349C17.4991 20.349 16.7126 20.2785 15.9345 20.1388V18.5237C15.9345 17.1377 15.1505 16.5171 14.3733 16.5171C13.864 16.5171 13.3579 16.7652 12.8692 17.2541L7.5347 22.5884C6.36343 23.7596 6.36343 25.6654 7.5347 26.8369L12.8692 32.1712C13.3579 32.6601 13.864 32.9079 14.3733 32.9079C15.1502 32.9079 15.9345 32.2874 15.9345 30.9014V29.4346C23.5084 28.9873 29.7779 23.1751 30.7097 15.5657C30.7619 15.1405 30.5202 14.7337 30.122 14.5761ZM14.9934 27.58C14.4735 27.58 14.0522 28.0013 14.0522 28.5212V30.6924L8.86575 25.5061C8.42828 25.0684 8.42828 24.3567 8.86551 23.9194L14.0522 18.7327V20.9042C14.0522 21.3407 14.3522 21.7198 14.777 21.8203C15.9306 22.0928 17.1097 22.2313 18.2814 22.2313C20.708 22.2313 23.1216 21.6441 25.2614 20.5331C26.2312 20.0295 27.1469 19.4185 27.9885 18.7168C25.9401 23.9481 20.8418 27.58 14.9934 27.58Z" fill="black"/>
</g>
<defs>
<clipPath id="clip0">
<rect width="32.1238" height="32.1238" fill="white" transform="translate(0.619141 0.784424)"/>
</clipPath>
</defs>
</svg>
