<svg width="33" height="33" viewBox="0 0 33 33" fill="none" xmlns="http://www.w3.org/2000/svg">
<g clip-path="url(#clip0)">
<path d="M25.4683 20.4681C24.8379 19.1537 22.5825 17.3293 20.4035 15.5665C19.1881 14.584 18.0397 13.6551 17.3076 12.923C17.1242 12.7383 16.8498 12.6794 16.6076 12.7664C16.1565 12.9297 15.8781 13.0555 15.6586 13.1532C15.324 13.3031 15.2116 13.354 14.7605 13.3995C14.561 13.4195 14.3817 13.5266 14.2706 13.6926C13.3242 15.1074 12.3445 14.9869 11.6899 14.7674C11.4811 14.6978 11.4437 14.6081 11.4236 14.5225C11.2831 13.9349 11.9885 12.5669 12.9026 11.6527C15.0777 9.47635 16.1993 8.93156 18.5684 9.99033C21.2561 11.1923 23.9492 12.1333 23.976 12.1426C24.328 12.2644 24.7068 12.0797 24.8286 11.7303C24.949 11.381 24.7656 10.9995 24.4163 10.8777C24.3895 10.8684 21.75 9.94616 19.1159 8.76693C16.0467 7.39495 14.3629 8.29843 11.9576 10.7051C11.0421 11.6206 9.79858 13.4731 10.1198 14.8317C10.2577 15.4099 10.6646 15.8382 11.2696 16.0376C12.7861 16.5382 14.1701 16.059 15.2007 14.6911C15.6264 14.6256 15.8579 14.5292 16.2059 14.3726C16.3317 14.3164 16.4789 14.2508 16.6744 14.1718C17.44 14.8906 18.4733 15.7271 19.5615 16.6065C21.5291 18.1979 23.7604 20.0023 24.2623 21.0463C24.51 21.5616 24.2436 21.8976 24.0629 22.0515C23.7978 22.279 23.4351 22.3513 23.2384 22.2134C23.0215 22.0648 22.7391 22.0555 22.5156 22.1893C22.2907 22.3232 22.1649 22.5761 22.193 22.8358C22.2385 23.2615 21.849 23.5051 21.6804 23.5894C21.252 23.8062 20.805 23.7688 20.6377 23.6135C20.4502 23.4395 20.1812 23.3886 19.943 23.477C19.7048 23.5666 19.5387 23.7862 19.5146 24.0405C19.4745 24.4795 19.1492 24.9011 18.7249 25.0657C18.5201 25.1433 18.223 25.1902 17.9566 24.9466C17.7907 24.7967 17.5604 24.7391 17.345 24.7913C17.1268 24.8448 16.9515 25.0028 16.8752 25.2129C16.8498 25.2799 16.7922 25.4405 16.1657 25.4405C15.72 25.4405 14.9182 25.1393 14.5261 24.8796C14.0563 24.5704 11.1103 22.3727 8.56584 20.2418C8.20846 19.9406 7.59008 19.2954 7.04397 18.7252C6.55942 18.2193 6.1164 17.7602 5.88883 17.5675C5.60374 17.3265 5.18211 17.3627 4.9452 17.6464C4.70697 17.9288 4.74173 18.3519 5.02419 18.5901C5.23168 18.7654 5.63323 19.1897 6.07624 19.6515C6.67323 20.2752 7.29023 20.9204 7.70521 21.2684C10.1975 23.3551 13.193 25.6078 13.79 25.9999C14.2825 26.3239 15.344 26.7789 16.1658 26.7789C16.8257 26.7789 17.333 26.6277 17.685 26.3319C18.1561 26.5153 18.6915 26.5166 19.2068 26.3159C19.8159 26.0803 20.3164 25.6051 20.6002 25.0296C21.1275 25.142 21.7312 25.063 22.28 24.7873C22.8167 24.517 23.2049 24.1034 23.3976 23.6202C23.9303 23.6483 24.4791 23.4595 24.9328 23.07C25.7012 22.4129 25.9127 21.3903 25.4683 20.4681Z" fill="black" stroke="black" stroke-width="0.486724"/>
<path d="M13.4874 9.37866H7.46419C7.09476 9.37866 6.79492 9.67851 6.79492 10.0479C6.79492 10.4174 7.09476 10.7172 7.46419 10.7172H13.4874C13.8568 10.7172 14.1567 10.4174 14.1567 10.0479C14.1567 9.67851 13.8568 9.37866 13.4874 9.37866Z" fill="black" stroke="black" stroke-width="0.486724"/>
<path d="M27.4296 19.0443C27.2221 18.7378 26.8072 18.6535 26.5007 18.8623L24.5439 20.1767C24.2374 20.3828 24.1557 20.7991 24.3619 21.1056C24.4917 21.297 24.7032 21.4014 24.9187 21.4014C25.0459 21.4014 25.1757 21.3653 25.2908 21.2876L27.2477 19.9733C27.5541 19.7671 27.6357 19.3509 27.4296 19.0443Z" fill="black" stroke="black" stroke-width="0.486724"/>
<path d="M23.2758 22.2376C22.7966 21.8602 20.6537 19.6664 19.3286 18.2851C19.0729 18.0174 18.6486 18.008 18.3822 18.265C18.1145 18.5207 18.1065 18.9449 18.3622 19.2113C18.7062 19.57 21.7405 22.7329 22.4459 23.2897C22.5677 23.3861 22.7149 23.433 22.8595 23.433C23.0562 23.433 23.253 23.3446 23.3868 23.1773C23.6158 22.8881 23.5663 22.4665 23.2758 22.2376Z" fill="black" stroke="black" stroke-width="0.486724"/>
<path d="M20.602 23.5802C19.8003 22.939 17.7859 20.7988 17.3308 20.3036C17.0791 20.0305 16.6575 20.0144 16.3844 20.2634C16.1127 20.5137 16.094 20.938 16.3443 21.2097C16.3684 21.2351 18.7723 23.8305 19.7654 24.6256C19.8886 24.7233 20.0372 24.7715 20.1831 24.7715C20.3785 24.7715 20.5739 24.6844 20.7064 24.5212C20.9367 24.232 20.8898 23.8104 20.602 23.5802Z" fill="black" stroke="black" stroke-width="0.486724"/>
<path d="M17.9355 24.9284C16.9811 24.124 15.0283 22.0453 14.6468 21.637C14.3938 21.3667 13.9695 21.3519 13.7005 21.6049C13.4301 21.8579 13.4167 22.2808 13.6683 22.5512C14.2171 23.1388 16.0857 25.1198 17.0721 25.9523C17.1979 26.0581 17.3505 26.1103 17.5031 26.1103C17.6932 26.1103 17.8833 26.0286 18.0158 25.872C18.254 25.5882 18.2179 25.1666 17.9355 24.9284Z" fill="black" stroke="black" stroke-width="0.486724"/>
<path d="M7.92565 8.22312C6.77854 7.13624 2.19156 6.7842 0.812936 6.70257C0.622892 6.69322 0.447529 6.75609 0.3137 6.88327C0.17981 7.00906 0.103516 7.18574 0.103516 7.37046V19.4169C0.103516 19.7863 0.403358 20.0861 0.772782 20.0861H4.78825C5.07737 20.0861 5.33436 19.9001 5.42401 19.6244C5.5217 19.3245 7.82796 12.2466 8.13176 8.76652C8.1492 8.56305 8.07422 8.36228 7.92565 8.22312ZM4.29968 18.7477H1.44198V8.08791C3.59296 8.25787 5.9139 8.6273 6.75715 9.03688C6.40247 11.9682 4.7976 17.1762 4.29968 18.7477Z" fill="black" stroke="black" stroke-width="0.486724"/>
<path d="M31.5592 8.04028C26.3042 8.04028 23.389 9.38547 23.2672 9.44168C23.0932 9.52331 22.9634 9.67458 22.9098 9.85797C22.8563 10.0414 22.883 10.2381 22.9834 10.4014C23.8106 11.7332 26.4006 19.1297 26.8985 20.934C26.9788 21.2244 27.2425 21.4252 27.5437 21.4252H31.5592C31.9286 21.4252 32.2284 21.1253 32.2284 20.7559V8.70949C32.2284 8.33875 31.9286 8.04028 31.5592 8.04028ZM30.89 20.0867H28.0443C27.4099 18.02 25.536 12.6313 24.4906 10.4041C25.5119 10.0574 27.7057 9.46176 30.89 9.38685V20.0867Z" fill="black" stroke="black" stroke-width="0.486724"/>
</g>
<defs>
<clipPath id="clip0">
<rect width="32.1238" height="32.1238" fill="white" transform="translate(0.103516 0.678711)"/>
</clipPath>
</defs>
</svg>
