<svg width="32" height="33" viewBox="0 0 32 33" fill="none" xmlns="http://www.w3.org/2000/svg">
<g clip-path="url(#clip0)">
<path d="M29.9142 13.2313H29.2963V10.4507C29.2963 9.08772 28.1872 7.9791 26.8246 7.9791C26.3481 7.9791 25.9026 8.11451 25.5251 8.34913C25.2724 7.25306 24.288 6.43433 23.1171 6.43433H23.1164C21.7541 6.43433 20.6448 7.54295 20.6448 8.90597V13.2313H11.254V8.90597C11.254 7.54295 10.1446 6.43433 8.78161 6.43433C7.61072 6.43433 6.62641 7.25306 6.37369 8.34913C5.99619 8.11451 5.55061 7.9791 5.07415 7.9791C3.71161 7.9791 2.6025 9.08772 2.6025 10.4507V13.2313H1.98459C0.962625 13.2313 0.130859 14.0631 0.130859 15.0851V17.5567C0.130859 18.5787 0.962625 19.4105 1.98459 19.4105H2.6025V22.1911C2.6025 23.5541 3.71161 24.6627 5.07415 24.6627C5.55061 24.6627 5.99619 24.5273 6.37369 24.2927C6.62641 25.3887 7.61072 26.2075 8.78161 26.2075H8.78234C10.1446 26.2075 11.254 25.0989 11.254 23.7358V19.4105H20.6448V23.7358C20.6448 25.0989 21.7541 26.2075 23.1171 26.2075C24.288 26.2075 25.2724 25.3887 25.5251 24.2927C25.9026 24.5273 26.3481 24.6627 26.8246 24.6627C28.1872 24.6627 29.2963 23.5541 29.2963 22.1911V19.4105H29.9142C30.9361 19.4105 31.7679 18.5787 31.7679 17.5567V15.0851C31.7679 14.0631 30.9361 13.2313 29.9142 13.2313ZM2.6025 18.1746H1.98459C1.64402 18.1746 1.36668 17.8973 1.36668 17.5567V15.0851C1.36668 14.7445 1.64402 14.4672 1.98459 14.4672H2.6025V18.1746ZM6.30997 22.1911C6.30997 22.5321 6.17166 22.8411 5.94791 23.0648C5.72416 23.2886 5.41521 23.4269 5.07415 23.4269C4.39251 23.4269 3.83833 22.8727 3.83833 22.1911V10.4507C3.83833 9.76911 4.39251 9.21493 5.07415 9.21493C5.75578 9.21493 6.30997 9.76911 6.30997 10.4507V22.1911ZM10.0182 23.7358C10.0182 24.4175 9.46325 24.9717 8.78234 24.9717H8.78161C8.1007 24.9717 7.54579 24.4175 7.54579 23.7358V8.90597C7.54579 8.22434 8.1007 7.67015 8.78234 7.67015C9.46325 7.67015 10.0182 8.22434 10.0182 8.90597V23.7358ZM20.6412 15.703H16.3201C15.9791 15.703 15.7022 15.9798 15.7022 16.3209C15.7022 16.662 15.9791 16.9388 16.3201 16.9388H20.6412V18.1746H11.2508V14.4672H20.6412V15.703ZM24.353 23.7358C24.353 24.4175 23.7981 24.9717 23.1164 24.9717C22.4355 24.9717 21.8806 24.4175 21.8806 23.7358V16.3525C21.8801 16.366 21.8789 16.3796 21.877 16.3926V16.2492C21.8789 16.2622 21.8801 16.2758 21.8806 16.2893V8.90597C21.8806 8.22434 22.4355 7.67015 23.1164 7.67015H23.1171C23.7981 7.67015 24.353 8.22434 24.353 8.90597V23.7358ZM28.0604 22.1911C28.0604 22.8727 27.5062 23.4269 26.8246 23.4269C26.143 23.4269 25.5888 22.8727 25.5888 22.1911V10.4507C25.5888 9.76911 26.143 9.21493 26.8246 9.21493C27.5062 9.21493 28.0604 9.76911 28.0604 10.4507V22.1911ZM30.5321 17.5567C30.5321 17.8973 30.2547 18.1746 29.9142 18.1746H29.2963V14.4672H29.9142C30.2547 14.4672 30.5321 14.7445 30.5321 15.0851V17.5567Z" fill="black" stroke="black" stroke-width="0.486724"/>
<path d="M13.8486 16.9385C13.5073 16.9385 13.2305 16.6618 13.2305 16.3205C13.2305 15.9792 13.5068 15.7026 13.8481 15.7026H13.8486C14.1899 15.7026 14.4665 15.9792 14.4665 16.3205C14.4665 16.6618 14.1899 16.9385 13.8486 16.9385Z" fill="black" stroke="black" stroke-width="0.486724"/>
</g>
<defs>
<clipPath id="clip0">
<rect width="31.637" height="31.637" fill="white" transform="translate(0.130859 0.501953)"/>
</clipPath>
</defs>
</svg>
