<svg width="31" height="32" viewBox="0 0 31 32" fill="none" xmlns="http://www.w3.org/2000/svg">
<g clip-path="url(#clip0)">
<path d="M27.4284 7.74099H22.8089V4.315C22.8089 3.12697 21.8739 2.1604 20.7246 2.1604H9.65939C8.51007 2.1604 7.57506 3.12691 7.57506 4.315V7.74099H2.95552C1.38291 7.74099 0.103516 9.06172 0.103516 10.685V27.1386C0.103516 28.7632 1.38197 30.0849 2.9534 30.0849H27.4306C29.002 30.0849 30.2804 28.7632 30.2804 27.1386V10.685C30.2804 9.06172 29.001 7.74099 27.4284 7.74099ZM8.75385 4.315C8.75385 3.79792 9.16011 3.37721 9.65939 3.37721H20.7245C21.2238 3.37721 21.6301 3.79792 21.6301 4.315V7.74099H20.1005V5.56996C20.1005 5.23394 19.8367 4.96156 19.5111 4.96156H10.8728C10.5472 4.96156 10.2834 5.23394 10.2834 5.56996V7.74099H8.75385V4.315ZM11.4622 7.74099V6.17837H18.9217V7.74099H11.4622ZM1.2823 10.685C1.2823 9.7326 2.03289 8.9578 2.95552 8.9578H27.4284C28.351 8.9578 29.1016 9.7326 29.1016 10.685V16.3274C29.1016 18.2046 27.6221 19.7319 25.8035 19.7319H25.1699V17.1516C25.1699 16.8155 24.9061 16.5431 24.5806 16.5431H20.9924C20.6669 16.5431 20.403 16.8155 20.403 17.1516V19.7319H9.98096V17.1516C9.98096 16.8155 9.71709 16.5431 9.39157 16.5431H5.80335C5.47783 16.5431 5.21396 16.8155 5.21396 17.1516V19.7319H4.58042C2.76185 19.732 1.2823 18.2047 1.2823 16.3275V10.685ZM23.9912 17.76V22.3123H21.5818V17.76H23.9912ZM8.80218 17.76V22.3123H6.3928V17.76H8.80218ZM29.1016 27.1386C29.1016 28.0923 28.352 28.8681 27.4305 28.8681H2.9534C2.03195 28.8681 1.2823 28.0922 1.2823 27.1386V19.4493C2.10126 20.3704 3.27663 20.9488 4.58042 20.9488H5.21396V22.9207C5.21396 23.2568 5.47783 23.5292 5.80335 23.5292H9.39151C9.71703 23.5292 9.9809 23.2568 9.9809 22.9207V20.9488H20.4029V22.9207C20.4029 23.2568 20.6668 23.5292 20.9923 23.5292H24.5804C24.906 23.5292 25.1698 23.2568 25.1698 22.9207V20.9488H25.8034C27.1072 20.9488 28.2825 20.3705 29.1015 19.4493V27.1386H29.1016Z" fill="black" stroke="black" stroke-width="0.486724"/>
<path d="M8.20072 12.2122H22.1828C22.5083 12.2122 22.7722 11.9398 22.7722 11.6038C22.7722 11.2677 22.5083 10.9954 22.1828 10.9954H8.20072C7.8752 10.9954 7.61133 11.2677 7.61133 11.6038C7.61133 11.9398 7.8752 12.2122 8.20072 12.2122Z" fill="black" stroke="black" stroke-width="0.486724"/>
</g>
<defs>
<clipPath id="clip0">
<rect width="30.1769" height="31.1503" fill="white" transform="translate(0.103516 0.547119)"/>
</clipPath>
</defs>
</svg>
