<svg width="33" height="32" viewBox="0 0 33 32" fill="none" xmlns="http://www.w3.org/2000/svg">
<g clip-path="url(#clip0)">
<path d="M32.1592 8.98704L26.8864 2.65972C26.7862 2.54003 26.6381 2.47046 26.4814 2.47046H6.4449C6.28832 2.47046 6.14015 2.53954 6.03992 2.65972L0.767175 8.98704C0.635871 9.14418 0.607386 9.36298 0.694386 9.54804C0.781387 9.7331 0.967499 9.85174 1.17209 9.85174H31.7541C31.9587 9.85174 32.1448 9.7331 32.2318 9.54804C32.3184 9.36353 32.2905 9.14467 32.1592 8.98704ZM2.29791 8.79722L6.69169 3.52448H26.2342L30.6279 8.79722H2.29791Z" fill="black" stroke="black" stroke-width="0.486724"/>
<path d="M16.949 2.7953C16.8672 2.59812 16.6748 2.46997 16.4618 2.46997H6.44352C6.25475 2.46997 6.08075 2.57069 5.9864 2.73468C5.89204 2.89867 5.89254 3.09955 5.988 3.26299L9.67892 9.59031C9.76116 9.73107 9.90408 9.82653 10.0665 9.8476C10.0891 9.85026 10.1118 9.85181 10.1339 9.85181C10.2732 9.85181 10.4076 9.797 10.5073 9.69733L16.8346 3.37001C16.9854 3.21924 17.0307 2.99247 16.949 2.7953ZM10.2447 8.46826L7.36098 3.52454H15.1884L10.2447 8.46826Z" fill="black" stroke="black" stroke-width="0.486724"/>
<path d="M32.2259 9.09056C32.1373 8.91075 31.9539 8.79688 31.7535 8.79688H1.17146C0.97107 8.79688 0.788109 8.91075 0.699008 9.09056C0.6104 9.27037 0.630976 9.48497 0.752765 9.6442L16.0438 29.6807C16.1435 29.8115 16.2985 29.8885 16.463 29.8885C16.6275 29.8885 16.7825 29.8115 16.8811 29.6807L32.1722 9.6442C32.294 9.48497 32.3145 9.27037 32.2259 9.09056ZM16.463 28.4923L2.23758 9.85201H30.6884L16.463 28.4923Z" fill="black" stroke="black" stroke-width="0.486724"/>
<path d="M16.9655 29.202L10.6382 9.16545C10.5686 8.9461 10.3656 8.79688 10.1352 8.79688H1.17146C0.97107 8.79688 0.788109 8.91075 0.699008 9.09056C0.6104 9.27037 0.630976 9.48497 0.752765 9.6442L16.0438 29.6807C16.1461 29.8152 16.3027 29.8885 16.463 29.8885C16.5452 29.8885 16.6285 29.8695 16.7055 29.8284C16.9328 29.7108 17.0425 29.4461 16.9655 29.202ZM2.23709 9.85201H9.74868L15.051 26.6426L2.23709 9.85201Z" fill="black" stroke="black" stroke-width="0.486724"/>
<path d="M26.9364 2.73468C26.8426 2.57069 26.6681 2.46997 26.4793 2.46997H16.461C16.248 2.46997 16.0555 2.59812 15.9738 2.7953C15.892 2.99247 15.9374 3.21924 16.0882 3.37001L22.4155 9.69733C22.5146 9.797 22.6491 9.85181 22.7883 9.85181C22.811 9.85181 22.8337 9.8502 22.8563 9.8476C23.0182 9.82653 23.1617 9.73162 23.2439 9.59031L26.9348 3.26299C27.0297 3.09955 27.0303 2.89867 26.9364 2.73468ZM22.6776 8.46826L17.7338 3.52454H25.5612L22.6776 8.46826Z" fill="black" stroke="black" stroke-width="0.486724"/>
<path d="M32.2285 9.0913C32.1399 8.91149 31.9564 8.79761 31.756 8.79761H22.7923C22.5619 8.79761 22.3584 8.94683 22.2893 9.16619L15.962 29.2027C15.885 29.4463 15.9946 29.711 16.2219 29.8292C16.2989 29.8692 16.3822 29.8882 16.4644 29.8882C16.6242 29.8882 16.7808 29.8149 16.8836 29.6815L32.1747 9.645C32.2965 9.48564 32.317 9.27104 32.2285 9.0913ZM17.876 26.6422L23.1783 9.85156H30.6899L17.876 26.6422Z" fill="black" stroke="black" stroke-width="0.486724"/>
</g>
<defs>
<clipPath id="clip0">
<rect width="31.637" height="31.637" fill="white" transform="translate(0.644531 0.360352)"/>
</clipPath>
</defs>
</svg>
