<svg width="29" height="34" viewBox="0 0 29 34" fill="none" xmlns="http://www.w3.org/2000/svg">
<g clip-path="url(#clip0)">
<path d="M27.768 8.19425H16.1847V1.2656C16.1847 0.917791 15.9118 0.635742 15.5751 0.635742H0.943629C0.606922 0.635742 0.333984 0.917791 0.333984 1.2656V32.2544C0.333984 32.6022 0.606922 32.8842 0.943629 32.8842H15.5751H27.768C28.1047 32.8842 28.3776 32.6022 28.3776 32.2544V8.82411C28.3776 8.47624 28.1046 8.19425 27.768 8.19425ZM16.1847 9.45396H27.1583V25.326H16.1847V9.45396ZM6.43043 31.6245V26.5857H10.0883V31.6245H6.43043ZM10.6979 25.326H5.82079C5.48408 25.326 5.21114 25.608 5.21114 25.9558V31.6245H1.55327V1.89545H14.9655V31.6245H11.3076V25.9558C11.3076 25.608 11.0346 25.326 10.6979 25.326ZM16.1847 31.6245V26.5857H27.1583V31.6245H16.1847Z" fill="black" stroke="black" stroke-width="0.486725"/>
<path d="M7.64871 5.6742H8.86782C9.20452 5.6742 9.47746 5.39222 9.47746 5.04435V3.78464C9.47746 3.43677 9.20452 3.15479 8.86782 3.15479H7.64871C7.312 3.15479 7.03906 3.43677 7.03906 3.78464V5.04435C7.03906 5.39222 7.312 5.6742 7.64871 5.6742Z" fill="black"/>
<path d="M7.64871 10.0829H8.86782C9.20452 10.0829 9.47746 9.80091 9.47746 9.45304V8.19333C9.47746 7.84546 9.20452 7.56348 8.86782 7.56348H7.64871C7.312 7.56348 7.03906 7.84546 7.03906 8.19333V9.45304C7.03906 9.80091 7.312 10.0829 7.64871 10.0829Z" fill="black"/>
<path d="M7.64871 14.4921H8.86782C9.20452 14.4921 9.47746 14.2101 9.47746 13.8622V12.6025C9.47746 12.2546 9.20452 11.9727 8.86782 11.9727H7.64871C7.312 11.9727 7.03906 12.2546 7.03906 12.6025V13.8622C7.03906 14.2101 7.312 14.4921 7.64871 14.4921Z" fill="black"/>
<path d="M7.64871 18.901H8.86782C9.20452 18.901 9.47746 18.619 9.47746 18.2712V17.0114C9.47746 16.6636 9.20452 16.3816 8.86782 16.3816H7.64871C7.312 16.3816 7.03906 16.6636 7.03906 17.0114V18.2712C7.03906 18.619 7.312 18.901 7.64871 18.901Z" fill="black"/>
<path d="M7.64871 23.3097H8.86782C9.20452 23.3097 9.47746 23.0277 9.47746 22.6798V21.4201C9.47746 21.0723 9.20452 20.7903 8.86782 20.7903H7.64871C7.312 20.7903 7.03906 21.0723 7.03906 21.4201V22.6798C7.03906 23.0277 7.312 23.3097 7.64871 23.3097Z" fill="black"/>
<path d="M3.38308 5.6742H4.60219C4.9389 5.6742 5.21183 5.39222 5.21183 5.04435V3.78464C5.21183 3.43677 4.9389 3.15479 4.60219 3.15479H3.38308C3.04638 3.15479 2.77344 3.43677 2.77344 3.78464V5.04435C2.77344 5.39222 3.04638 5.6742 3.38308 5.6742Z" fill="black"/>
<path d="M3.38308 10.0829H4.60219C4.9389 10.0829 5.21183 9.80091 5.21183 9.45304V8.19333C5.21183 7.84546 4.9389 7.56348 4.60219 7.56348H3.38308C3.04638 7.56348 2.77344 7.84546 2.77344 8.19333V9.45304C2.77344 9.80091 3.04638 10.0829 3.38308 10.0829Z" fill="black"/>
<path d="M3.38308 14.4921H4.60219C4.9389 14.4921 5.21183 14.2101 5.21183 13.8622V12.6025C5.21183 12.2546 4.9389 11.9727 4.60219 11.9727H3.38308C3.04638 11.9727 2.77344 12.2546 2.77344 12.6025V13.8622C2.77344 14.2101 3.04638 14.4921 3.38308 14.4921Z" fill="black"/>
<path d="M3.38308 18.901H4.60219C4.9389 18.901 5.21183 18.619 5.21183 18.2712V17.0114C5.21183 16.6636 4.9389 16.3816 4.60219 16.3816H3.38308C3.04638 16.3816 2.77344 16.6636 2.77344 17.0114V18.2712C2.77344 18.619 3.04638 18.901 3.38308 18.901Z" fill="black"/>
<path d="M3.38308 23.3097H4.60219C4.9389 23.3097 5.21183 23.0277 5.21183 22.6798V21.4201C5.21183 21.0723 4.9389 20.7903 4.60219 20.7903H3.38308C3.04638 20.7903 2.77344 21.0723 2.77344 21.4201V22.6798C2.77344 23.0277 3.04638 23.3097 3.38308 23.3097Z" fill="black"/>
<path d="M13.1373 3.15479H11.9182C11.5815 3.15479 11.3086 3.43677 11.3086 3.78464V5.04435C11.3086 5.39222 11.5815 5.6742 11.9182 5.6742H13.1373C13.4741 5.6742 13.747 5.39222 13.747 5.04435V3.78464C13.747 3.43677 13.4741 3.15479 13.1373 3.15479Z" fill="black"/>
<path d="M13.1373 7.56348H11.9182C11.5815 7.56348 11.3086 7.84546 11.3086 8.19333V9.45304C11.3086 9.80091 11.5815 10.0829 11.9182 10.0829H13.1373C13.4741 10.0829 13.747 9.80091 13.747 9.45304V8.19333C13.747 7.84553 13.4741 7.56348 13.1373 7.56348Z" fill="black"/>
<path d="M13.1373 11.9727H11.9182C11.5815 11.9727 11.3086 12.2546 11.3086 12.6025V13.8622C11.3086 14.2101 11.5815 14.4921 11.9182 14.4921H13.1373C13.4741 14.4921 13.747 14.2101 13.747 13.8622V12.6025C13.747 12.2547 13.4741 11.9727 13.1373 11.9727Z" fill="black"/>
<path d="M13.1373 16.3816H11.9182C11.5815 16.3816 11.3086 16.6636 11.3086 17.0114V18.2712C11.3086 18.619 11.5815 18.901 11.9182 18.901H13.1373C13.4741 18.901 13.747 18.619 13.747 18.2712V17.0114C13.747 16.6636 13.4741 16.3816 13.1373 16.3816Z" fill="black"/>
<path d="M13.1373 20.7903H11.9182C11.5815 20.7903 11.3086 21.0723 11.3086 21.4201V22.6798C11.3086 23.0277 11.5815 23.3097 11.9182 23.3097H13.1373C13.4741 23.3097 13.747 23.0277 13.747 22.6798V21.4201C13.747 21.0723 13.4741 20.7903 13.1373 20.7903Z" fill="black"/>
<path d="M24.4147 11.9727H23.1956C22.8589 11.9727 22.5859 12.2546 22.5859 12.6025V13.8622C22.5859 14.2101 22.8589 14.4921 23.1956 14.4921H24.4147C24.7514 14.4921 25.0243 14.2101 25.0243 13.8622V12.6025C25.0243 12.2547 24.7513 11.9727 24.4147 11.9727Z" fill="black"/>
<path d="M24.4147 16.3816H23.1956C22.8589 16.3816 22.5859 16.6636 22.5859 17.0114V18.2712C22.5859 18.619 22.8589 18.901 23.1956 18.901H24.4147C24.7514 18.901 25.0243 18.619 25.0243 18.2712V17.0114C25.0243 16.6636 24.7513 16.3816 24.4147 16.3816Z" fill="black"/>
<path d="M24.4147 20.7903H23.1956C22.8589 20.7903 22.5859 21.0723 22.5859 21.4201V22.6798C22.5859 23.0277 22.8589 23.3097 23.1956 23.3097H24.4147C24.7514 23.3097 25.0243 23.0277 25.0243 22.6798V21.4201C25.0243 21.0723 24.7513 20.7903 24.4147 20.7903Z" fill="black"/>
<path d="M20.1471 11.9727H18.928C18.5913 11.9727 18.3184 12.2546 18.3184 12.6025V13.8622C18.3184 14.2101 18.5913 14.4921 18.928 14.4921H20.1471C20.4838 14.4921 20.7568 14.2101 20.7568 13.8622V12.6025C20.7568 12.2547 20.4838 11.9727 20.1471 11.9727Z" fill="black"/>
<path d="M20.1471 16.3816H18.928C18.5913 16.3816 18.3184 16.6636 18.3184 17.0114V18.2712C18.3184 18.619 18.5913 18.901 18.928 18.901H20.1471C20.4838 18.901 20.7568 18.619 20.7568 18.2712V17.0114C20.7568 16.6636 20.4838 16.3816 20.1471 16.3816Z" fill="black"/>
<path d="M20.1471 20.7903H18.928C18.5913 20.7903 18.3184 21.0723 18.3184 21.4201V22.6798C18.3184 23.0277 18.5913 23.3097 18.928 23.3097H20.1471C20.4838 23.3097 20.7568 23.0277 20.7568 22.6798V21.4201C20.7568 21.0723 20.4838 20.7903 20.1471 20.7903Z" fill="black"/>
</g>
<defs>
<clipPath id="clip0">
<rect width="28.7167" height="33.0972" fill="white" transform="translate(0.078125 0.211426)"/>
</clipPath>
</defs>
</svg>
