<svg width="32" height="33" viewBox="0 0 32 33" fill="none" xmlns="http://www.w3.org/2000/svg">
<g clip-path="url(#clip0)">
<path d="M3.21947 18.3823C2.87842 18.3823 2.60156 18.6592 2.60156 19.0002C2.60156 19.3413 2.87842 19.6182 3.21947 19.6182C3.56053 19.6182 3.83739 19.3413 3.83739 19.0002C3.83739 18.6592 3.56053 18.3823 3.21947 18.3823Z" fill="black" stroke="black" stroke-width="0.486724"/>
<path d="M28.5292 20.5247L22.7039 22.5274C22.7298 22.384 22.7442 22.2377 22.7442 22.0893C22.7442 20.7265 21.6356 19.6176 20.2726 19.6176H16.2711C16.1649 19.6176 16.0602 19.5904 15.9677 19.5382L12.7032 17.7021C12.0577 17.3384 11.3242 17.146 10.582 17.146H6.20158C5.94669 16.4269 5.25975 15.9104 4.45429 15.9104H0.746818C0.405518 15.9104 0.128906 16.187 0.128906 16.5283V27.6505C0.128906 27.9918 0.405518 28.2684 0.746818 28.2684H4.45429C5.24141 28.2684 5.91628 27.7738 6.1842 27.0792C6.8837 27.1661 7.69302 27.3729 8.20159 27.678L11.4331 29.617C12.6573 30.3517 14.059 30.7401 15.4869 30.7401C16.6185 30.7401 17.7148 30.5025 18.7457 30.0343L30.2787 24.9561C31.556 24.4378 32.1867 22.9054 31.4566 21.5546C30.9195 20.5607 29.6617 20.1185 28.5292 20.5247ZM5.0722 26.4176C5.07076 26.7569 4.7939 27.0326 4.45429 27.0326H1.36473V17.1462H4.45429C4.79487 17.1462 5.0722 17.4233 5.0722 17.7641V26.4176ZM29.8092 23.8132C29.8027 23.8156 29.7962 23.8185 29.7897 23.8211C29.7897 23.8211 18.2395 28.9068 18.2374 28.9078C17.3672 29.3036 16.4418 29.5042 15.4869 29.5042C14.283 29.5042 13.1012 29.1769 12.0691 28.5573L8.83736 26.6184C8.14559 26.2035 7.155 25.9505 6.30803 25.8491V18.382H10.582C11.1121 18.382 11.6358 18.5191 12.0971 18.7791L15.3616 20.6152C15.6383 20.7711 15.953 20.8537 16.2711 20.8537H20.2726C20.954 20.8537 21.5084 21.4079 21.5084 22.0895C21.5084 22.7685 20.9538 23.3253 20.2726 23.3253H13.9911C13.6498 23.3253 13.3732 23.602 13.3732 23.9433C13.3732 24.2843 13.6498 24.5609 13.9911 24.5609H20.2726C20.6779 24.5609 21.0769 24.4603 21.4309 24.2715C21.4309 24.2715 28.9412 21.6898 28.9441 21.6888C29.4978 21.489 30.124 21.6879 30.3694 22.1421C30.7375 22.8231 30.4332 23.5633 29.8092 23.8132Z" fill="black" stroke="black" stroke-width="0.486724"/>
<path d="M18.1247 17.1745C18.2411 17.2752 18.3852 17.3254 18.5295 17.3254C18.6739 17.3254 18.8182 17.2752 18.9343 17.1745C23.9758 12.8052 27.0944 10.594 27.0944 7.15782C27.0944 4.43949 25.1699 2.18677 22.4663 2.18677C20.6908 2.18677 19.3311 3.21018 18.4554 4.74603C17.5817 3.21356 16.2235 2.18677 14.4453 2.18677C12.3755 2.18677 10.6451 3.52807 10.0369 5.60363C9.94078 5.93117 10.1286 6.2744 10.4561 6.37047C10.7837 6.46653 11.1269 6.27875 11.2227 5.9512C11.6729 4.41511 12.9377 3.42259 14.4453 3.42259C16.208 3.42259 17.4446 4.98789 17.86 6.44529C17.9341 6.71297 18.1778 6.89835 18.4554 6.89835C18.7332 6.89835 18.9768 6.71297 19.0509 6.44529C19.0593 6.41512 19.9177 3.42259 22.4663 3.42259C24.4002 3.42259 25.8585 5.0282 25.8585 7.15782C25.8585 9.90657 23.1716 11.8882 18.529 15.8911C15.7004 13.462 13.4535 11.7521 12.1764 10.0794C11.9693 9.80809 11.5816 9.75595 11.3103 9.96305C11.039 10.1701 10.9871 10.5578 11.194 10.8293C12.6335 12.7147 15.0637 14.5211 18.1247 17.1745Z" fill="black" stroke="black" stroke-width="0.486724"/>
<path d="M10.571 7.63062C10.23 7.63062 9.95312 7.90747 9.95312 8.24853C9.95312 8.58959 10.23 8.86644 10.571 8.86644C10.9121 8.86644 11.189 8.58959 11.189 8.24853C11.189 7.90747 10.9121 7.63062 10.571 7.63062Z" fill="black" stroke="black" stroke-width="0.486724"/>
</g>
<defs>
<clipPath id="clip0">
<rect width="31.637" height="31.637" fill="white" transform="translate(0.130859 0.642822)"/>
</clipPath>
</defs>
</svg>
