<svg width="34" height="18" viewBox="0 0 34 18" fill="none" xmlns="http://www.w3.org/2000/svg">
<g clip-path="url(#clip0)">
<path d="M6.52132 9.95288C4.66973 9.95288 3.16211 11.466 3.16211 13.3244C3.16211 15.1828 4.66973 16.6961 6.52132 16.6961C8.3729 16.6961 9.88052 15.1829 9.88052 13.3245C9.88052 11.4661 8.3729 9.95288 6.52132 9.95288ZM6.52132 15.3474C5.41006 15.3474 4.50578 14.4398 4.50578 13.3245C4.50578 12.2092 5.41006 11.3016 6.52132 11.3016C7.63257 11.3016 8.53685 12.2092 8.53685 13.3245C8.53685 14.4398 7.63257 15.3474 6.52132 15.3474Z" fill="black" stroke="black" stroke-width="0.486724"/>
<path d="M26.6776 9.95288C24.826 9.95288 23.3184 11.466 23.3184 13.3244C23.3184 15.1828 24.826 16.6961 26.6776 16.6961C28.5292 16.6961 30.0368 15.1829 30.0368 13.3245C30.0368 11.4661 28.5292 9.95288 26.6776 9.95288ZM26.6776 15.3474C25.5663 15.3474 24.662 14.4398 24.662 13.3245C24.662 12.2092 25.5663 11.3016 26.6776 11.3016C27.7888 11.3016 28.6931 12.2092 28.6931 13.3245C28.6931 14.4398 27.7888 15.3474 26.6776 15.3474Z" fill="black" stroke="black" stroke-width="0.486724"/>
<path d="M28.6921 5.90744H27.5553C27.1401 5.90744 26.733 5.76451 26.4078 5.50285L21.1137 1.25195C20.5198 0.775923 19.7741 0.512939 19.0148 0.512939H9.30265C8.17666 0.512939 7.13262 1.07399 6.5078 2.01397L5.3643 3.73751C5.02166 4.25134 4.44925 4.55883 3.83381 4.55883C1.98223 4.55883 0.474609 6.07199 0.474609 7.93038V10.6277C0.474609 12.4861 1.98223 13.9992 3.83381 13.9992C4.20467 13.9992 4.50568 13.6971 4.50568 13.3249C4.50568 12.9527 4.20467 12.6506 3.83381 12.6506C2.72256 12.6506 1.81828 11.743 1.81828 10.6277V7.93038C1.81828 6.81505 2.72256 5.90744 3.83381 5.90744C4.90072 5.90744 5.88966 5.3761 6.48223 4.48461L7.62573 2.76239C8.00062 2.19868 8.62814 1.86149 9.30265 1.86149H19.0148C19.4717 1.86149 19.9178 2.01928 20.2752 2.30521L25.5693 6.55472C26.1297 7.00653 26.8364 7.25598 27.5567 7.25598H28.6921C30.6633 7.25598 31.3795 9.27217 31.3795 10.6275C31.3795 11.9559 30.3664 12.6505 29.364 12.6505C28.9931 12.6505 28.6921 12.9526 28.6921 13.3248C28.6921 13.697 28.9931 13.9992 29.364 13.9992C31.2787 13.9992 32.7232 12.5495 32.7232 10.6277C32.7232 8.33902 31.311 5.90744 28.6921 5.90744Z" fill="black" stroke="black" stroke-width="0.486724"/>
<path d="M23.9895 12.6499H9.20898C8.83812 12.6499 8.53711 12.952 8.53711 13.3242C8.53711 13.6965 8.83812 13.9986 9.20898 13.9986H23.9896C24.3604 13.9986 24.6615 13.6965 24.6615 13.3242C24.6615 12.952 24.3604 12.6499 23.9895 12.6499Z" fill="black" stroke="black" stroke-width="0.486724"/>
<path d="M22.6462 5.90675H16.5996V3.88381C16.5996 3.51159 16.2986 3.20947 15.9277 3.20947C15.5569 3.20947 15.2559 3.51159 15.2559 3.88381V6.58109C15.2559 6.95331 15.5569 7.25543 15.9277 7.25543H22.6462C23.0171 7.25543 23.3181 6.95331 23.3181 6.58109C23.3181 6.20887 23.0171 5.90675 22.6462 5.90675Z" fill="black" stroke="black" stroke-width="0.486724"/>
<path d="M13.2399 5.90692H8.95215L9.81077 4.18609C9.97604 3.853 9.84169 3.44841 9.50976 3.28114C9.1765 3.11526 8.77478 3.24877 8.60812 3.58326L7.26445 6.28054C7.15964 6.48821 7.17174 6.73772 7.29399 6.93597C7.41625 7.13422 7.6326 7.2556 7.86508 7.2556H13.2398C13.6107 7.2556 13.9117 6.95348 13.9117 6.58126C13.9117 6.20904 13.6107 5.90692 13.2399 5.90692Z" fill="black" stroke="black" stroke-width="0.486724"/>
<path d="M18.6132 8.604H17.2695C16.8987 8.604 16.5977 8.90612 16.5977 9.27834C16.5977 9.65056 16.8987 9.95268 17.2695 9.95268H18.6132C18.984 9.95268 19.2851 9.65056 19.2851 9.27834C19.2851 8.90612 18.984 8.604 18.6132 8.604Z" fill="black" stroke="black" stroke-width="0.486724"/>
</g>
<defs>
<clipPath id="clip0">
<rect width="33.0972" height="17.0353" fill="white" transform="translate(0.130859 0.0874023)"/>
</clipPath>
</defs>
</svg>
