<svg width="25" height="25" viewBox="0 0 25 25" fill="none" xmlns="http://www.w3.org/2000/svg">
<path fill-rule="evenodd" clip-rule="evenodd" d="M6.9569 22.4137C6.18103 22.0689 5.57759 21.6378 4.97414 21.0344C4.37069 20.4309 3.93966 19.7413 3.68103 18.9654C3.42241 18.1896 3.25 17.4137 3.25 16.6378C3.25 15.862 3.42241 15.0861 3.68103 14.3102C3.93966 13.5344 4.4569 12.8447 4.97414 12.2413L12.7328 4.13783C13.1638 3.7068 13.5948 3.36197 14.1121 3.18955C14.6293 3.01714 15.1466 2.84473 15.6638 2.84473C16.181 2.84473 16.7845 2.93093 17.2155 3.18955C17.7328 3.44817 18.25 3.7068 18.5948 4.13783C19.0259 4.56886 19.2845 4.9999 19.5431 5.60335C19.7155 6.12059 19.8879 6.72404 19.8879 7.24128C19.8879 7.84473 19.8017 8.36197 19.5431 8.87921C19.3707 9.39645 19.0259 9.91369 18.5948 10.3447L10.8362 18.4482C10.5776 18.7068 10.319 18.8792 9.97414 19.0516C9.62931 19.1378 9.37069 19.224 9.02586 19.224C8.68103 19.224 8.33621 19.1378 8.07759 19.0516C7.73276 18.8792 7.47414 18.7068 7.21552 18.4482C6.9569 18.1896 6.78448 17.9309 6.69828 17.5861C6.61207 17.2413 6.52586 16.8965 6.52586 16.5516C6.52586 16.2068 6.61207 15.862 6.69828 15.6033C6.78448 15.2585 7.0431 14.9999 7.21552 14.7413L14.3707 7.32749C14.7155 6.98266 15.2328 6.98266 15.5776 7.32749C15.9224 7.67231 15.9224 8.18955 15.5776 8.53438L8.42241 15.9482C8.25 16.1206 8.16379 16.293 8.16379 16.5516C8.16379 16.8102 8.25 16.9827 8.42241 17.1551C8.59483 17.3275 8.76724 17.4137 9.02586 17.4137C9.28448 17.4137 9.4569 17.3275 9.62931 17.1551L17.3879 9.05162C17.9052 8.53438 18.1638 7.93093 18.1638 7.15507C18.1638 6.46542 17.9052 5.77576 17.3879 5.25852C16.8707 4.74128 16.2672 4.48266 15.5776 4.48266C14.8879 4.48266 14.2845 4.74128 13.7672 5.25852L6.00862 13.362C5.57759 13.793 5.31897 14.3102 5.06034 14.8275C4.88793 15.3447 4.71552 15.9482 4.71552 16.4654C4.71552 17.0689 4.80172 17.5861 5.06034 18.1033C5.23276 18.6206 5.57759 19.1378 6.00862 19.5689C6.43966 19.9999 6.87069 20.3447 7.38793 20.5171C7.90517 20.6896 8.42241 20.862 8.93966 20.862C9.4569 20.862 10.0603 20.7758 10.4914 20.5171C11.0086 20.2585 11.5259 19.9999 11.8707 19.5689L19.6293 11.4654C19.9741 11.1206 20.4914 11.1206 20.8362 11.4654C21.181 11.8102 21.181 12.3275 20.8362 12.6723L13.0776 20.7758C12.4741 21.3792 11.8707 21.8102 11.0948 22.1551C10.6638 22.6723 9.88793 22.8447 9.19828 22.8447C8.42241 22.8447 7.64655 22.6723 6.9569 22.4137Z" fill="#7C88B1"/>
</svg>
