<svg width="20" height="21" viewBox="0 0 20 21" fill="none" xmlns="http://www.w3.org/2000/svg">
<path fill-rule="evenodd" clip-rule="evenodd" d="M10.5401 15.3134C10.211 15.1022 9.78898 15.1022 9.45988 15.3134L6.27982 17.3543C5.51304 17.8464 4.54132 17.1404 4.7724 16.2591L5.73075 12.604C5.82993 12.2257 5.69952 11.8244 5.39694 11.5766L2.4732 9.1829C1.76822 8.60573 2.13939 7.46339 3.04898 7.41082L6.82134 7.19278C7.21174 7.17022 7.55317 6.92215 7.69527 6.55783L9.06836 3.03748C9.39944 2.18866 10.6006 2.18866 10.9316 3.03749L12.3047 6.55783C12.4468 6.92216 12.7883 7.17022 13.1787 7.19278L16.951 7.41082C17.8606 7.46339 18.2318 8.60573 17.5268 9.18291L14.6031 11.5766C14.3005 11.8244 14.1701 12.2257 14.2692 12.604L15.2276 16.2591C15.4587 17.1404 14.487 17.8464 13.7202 17.3543L10.5401 15.3134Z" stroke="#7C88B1" stroke-width="1.5"/>
</svg>
