<svg width="10" height="9" viewBox="0 0 10 9" fill="none" xmlns="http://www.w3.org/2000/svg">
<path d="M5.45597 3.11401H4.46282V4.07405H5.45597V3.11401ZM7.44226 3.11401H6.44911V4.07405H7.44226V3.11401ZM8.93198 6.23415C8.31126 6.23415 7.71537 6.13814 7.15921 5.96054C6.98541 5.90773 6.79175 5.94613 6.65271 6.07574L5.56025 7.13179C4.15494 6.44056 3.00289 5.33171 2.28783 3.97325L3.38029 2.9124C3.51933 2.7828 3.55906 2.59559 3.50443 2.42758C3.3207 1.88996 3.22139 1.31393 3.22139 0.713908C3.22139 0.449896 2.99793 0.233887 2.72481 0.233887H0.986808C0.713692 0.233887 0.490234 0.449896 0.490234 0.713908C0.490234 5.2213 4.26916 8.87426 8.93198 8.87426C9.20509 8.87426 9.42855 8.65825 9.42855 8.39424V6.71417C9.42855 6.45016 9.20509 6.23415 8.93198 6.23415ZM8.43541 3.11401V4.07405H9.42855V3.11401H8.43541Z" fill="white"/>
</svg>
