<?xml version="1.0" standalone="no"?>
<!DOCTYPE svg PUBLIC "-//W3C//DTD SVG 20010904//EN"
 "http://www.w3.org/TR/2001/REC-SVG-20010904/DTD/svg10.dtd">
<svg version="1.0" xmlns="http://www.w3.org/2000/svg"
 width="225.000000pt" height="225.000000pt" viewBox="0 0 225.000000 225.000000"
 preserveAspectRatio="xMidYMid meet">
<metadata>
Created by potrace 1.11, written by Peter Selinger 2001-2013
</metadata>
<g transform="translate(0.000000,225.000000) scale(0.100000,-0.100000)"
fill="#000000" stroke="none">
<path d="M0 1125 l0 -1125 1125 0 1125 0 0 1125 0 1125 -1125 0 -1125 0 0
-1125z m1008 756 c18 -12 41 -40 52 -61 50 -98 -1 -204 -115 -240 -238 -75
-383 -315 -334 -552 36 -173 166 -313 340 -364 124 -37 168 -180 82 -275 -65
-71 -139 -73 -289 -4 -240 110 -419 335 -464 585 -63 348 108 705 413 866 150
79 249 93 315 45z m425 10 c205 -71 367 -213 463 -406 125 -253 115 -538 -27
-778 -81 -136 -214 -254 -363 -322 -150 -69 -224 -67 -289 4 -86 95 -42 238
82 275 174 51 304 191 340 364 49 237 -96 477 -334 552 -91 29 -141 97 -133
181 12 123 122 177 261 130z"/>
</g>
</svg>
