<?xml version="1.0" standalone="no"?>
<!DOCTYPE svg PUBLIC "-//W3C//DTD SVG 20010904//EN"
 "http://www.w3.org/TR/2001/REC-SVG-20010904/DTD/svg10.dtd">
<svg version="1.0" xmlns="http://www.w3.org/2000/svg"
 width="512.000000pt" height="512.000000pt" viewBox="0 0 512.000000 512.000000"
 preserveAspectRatio="xMidYMid meet">
<metadata>
Created by potrace 1.11, written by Peter Selinger 2001-2013
</metadata>
<g transform="translate(0.000000,512.000000) scale(0.100000,-0.100000)"
fill="#000000" stroke="none">
<path d="M12 4768 c7 -13 13 -25 13 -28 0 -3 8 -16 17 -30 16 -26 73 -124 116
-199 14 -25 38 -68 55 -95 16 -28 49 -85 72 -126 23 -41 58 -102 77 -135 69
-119 226 -391 245 -425 11 -19 89 -154 173 -300 84 -146 202 -350 263 -455
210 -364 271 -471 337 -585 37 -63 122 -211 190 -328 107 -185 124 -210 135
-195 6 10 40 68 75 128 34 61 88 153 118 205 30 52 67 116 81 141 40 70 271
472 282 489 44 72 179 314 179 321 0 5 3 9 8 9 4 0 13 15 21 33 8 17 23 43 33
56 10 13 18 29 18 35 0 9 -99 12 -392 11 -377 -1 -438 3 -438 24 0 6 -15 36
-34 68 -18 32 -45 79 -60 106 -14 26 -37 66 -50 90 -48 86 -180 324 -209 377
-16 30 -34 61 -40 68 -7 9 16 12 109 12 791 3 2407 0 2411 -4 3 -2 -34 -74
-82 -158 -48 -84 -99 -173 -113 -198 -13 -25 -28 -49 -32 -55 -4 -5 -21 -35
-37 -65 -17 -30 -128 -226 -248 -435 -120 -209 -231 -405 -248 -435 -16 -30
-33 -59 -37 -65 -4 -5 -17 -26 -27 -45 -11 -19 -66 -116 -123 -215 -56 -99
-114 -200 -128 -225 -14 -25 -33 -58 -43 -75 -70 -123 -176 -308 -197 -345
-13 -25 -50 -88 -80 -140 -69 -120 -77 -134 -143 -250 -29 -52 -62 -108 -71
-125 -10 -16 -30 -54 -45 -83 -25 -47 -26 -55 -13 -75 11 -17 143 -248 260
-452 10 -16 41 -70 70 -120 29 -49 59 -102 67 -118 8 -15 18 -27 22 -27 4 0
173 291 376 647 204 356 375 655 380 665 6 9 20 34 31 55 12 21 65 115 119
208 54 94 109 190 123 215 14 25 66 117 117 205 51 88 103 180 117 205 14 25
34 61 45 80 167 292 438 766 646 1130 143 250 269 471 280 490 10 19 84 148
163 287 79 138 144 256 144 261 0 7 -896 11 -2555 11 l-2556 1 13 -22z"/>
</g>
</svg>
