<svg width="18" height="15" viewBox="0 0 16 14" fill="none" xmlns="http://www.w3.org/2000/svg">
<path d="M0.370456 2.81094C0.608021 2.26087 0.950567 1.76241 1.37892 1.34345C1.80759 0.923235 2.31301 0.589299 2.86768 0.359797C3.44285 0.120874 4.05974 -0.00142104 4.68256 1.24575e-05C5.55632 1.24575e-05 6.40882 0.239278 7.14966 0.691225C7.32689 0.799338 7.49526 0.918084 7.65477 1.04747C7.81428 0.918084 7.98265 0.799338 8.15989 0.691225C8.90073 0.239278 9.75322 1.24575e-05 10.627 1.24575e-05C11.2562 1.24575e-05 11.8659 0.120532 12.4419 0.359797C12.9984 0.590202 13.4999 0.921629 13.9306 1.34345C14.3595 1.76193 14.7022 2.26052 14.9391 2.81094C15.1854 3.38341 15.3113 3.99132 15.3113 4.61696C15.3113 5.20715 15.1908 5.82215 14.9515 6.44778C14.7512 6.97062 14.4641 7.51296 14.0972 8.06061C13.5159 8.92729 12.7166 9.83118 11.7241 10.7475C10.0793 12.2664 8.45055 13.3156 8.38143 13.3581L7.96139 13.6275C7.77529 13.7463 7.53603 13.7463 7.34993 13.6275L6.92988 13.3581C6.86076 13.3138 5.23376 12.2664 3.58725 10.7475C2.59474 9.83118 1.79542 8.92729 1.21409 8.06061C0.847215 7.51296 0.558324 6.97062 0.359822 6.44778C0.120557 5.82215 3.62396e-05 5.20715 3.62396e-05 4.61696C-0.00173569 3.99132 0.124101 3.38341 0.370456 2.81094Z" fill="#F2760C"/>
</svg>
