<svg width="18" height="22" viewBox="0 0 18 22" fill="none" xmlns="http://www.w3.org/2000/svg">
<path d="M16.5 9.3335C16.5 15.1668 9 20.1668 9 20.1668C9 20.1668 1.5 15.1668 1.5 9.3335C1.5 7.34437 2.29018 5.43672 3.6967 4.03019C5.10322 2.62367 7.01088 1.8335 9 1.8335C10.9891 1.8335 12.8968 2.62367 14.3033 4.03019C15.7098 5.43672 16.5 7.34437 16.5 9.3335Z" stroke="black" stroke-width="2" stroke-linecap="round" stroke-linejoin="round"/>
<path d="M9 11.8335C10.3807 11.8335 11.5 10.7142 11.5 9.3335C11.5 7.95278 10.3807 6.8335 9 6.8335C7.61929 6.8335 6.5 7.95278 6.5 9.3335C6.5 10.7142 7.61929 11.8335 9 11.8335Z" stroke="black" stroke-width="2" stroke-linecap="round" stroke-linejoin="round"/>
</svg>
