<svg width="13" height="12" viewBox="0 0 13 12" fill="none" xmlns="http://www.w3.org/2000/svg">
<path d="M5.76758 9.42415H6.93425V8.25749H5.76758V9.42415ZM6.35091 0.0908203C3.13091 0.0908203 0.517578 2.70415 0.517578 5.92415C0.517578 9.14415 3.13091 11.7575 6.35091 11.7575C9.57091 11.7575 12.1842 9.14415 12.1842 5.92415C12.1842 2.70415 9.57091 0.0908203 6.35091 0.0908203ZM6.35091 10.5908C3.77841 10.5908 1.68424 8.49665 1.68424 5.92415C1.68424 3.35165 3.77841 1.25749 6.35091 1.25749C8.92341 1.25749 11.0176 3.35165 11.0176 5.92415C11.0176 8.49665 8.92341 10.5908 6.35091 10.5908ZM6.35091 2.42415C5.06175 2.42415 4.01758 3.46832 4.01758 4.75749H5.18425C5.18425 4.11582 5.70925 3.59082 6.35091 3.59082C6.99258 3.59082 7.51758 4.11582 7.51758 4.75749C7.51758 5.92415 5.76758 5.77832 5.76758 7.67415H6.93425C6.93425 6.36165 8.68425 6.21582 8.68425 4.75749C8.68425 3.46832 7.64008 2.42415 6.35091 2.42415Z" fill="#9E9E9E"/>
</svg>
