<svg width="12" height="13" viewBox="0 0 12 13" fill="none" xmlns="http://www.w3.org/2000/svg">
<path d="M5.4086 2.62891H1.9683C1.7076 2.62891 1.45759 2.73247 1.27325 2.9168C1.08891 3.10114 0.985352 3.35116 0.985352 3.61185V10.4925C0.985352 10.7532 1.08891 11.0032 1.27325 11.1875C1.45759 11.3718 1.7076 11.4754 1.9683 11.4754H8.8489C9.10959 11.4754 9.35961 11.3718 9.54395 11.1875C9.72829 11.0032 9.83185 10.7532 9.83185 10.4925V7.05215" stroke="#9E9E9E" stroke-width="1.24161" stroke-linecap="round" stroke-linejoin="round"/>
<path d="M9.09502 1.8913C9.29054 1.69578 9.55573 1.58594 9.83223 1.58594C10.1087 1.58594 10.3739 1.69578 10.5694 1.8913C10.765 2.08682 10.8748 2.352 10.8748 2.62851C10.8748 2.90501 10.765 3.17019 10.5694 3.36571L5.90046 8.0347L3.93457 8.52617L4.42604 6.56028L9.09502 1.8913Z" stroke="#9E9E9E" stroke-width="1.24161" stroke-linecap="round" stroke-linejoin="round"/>
</svg>
