<svg width="13" height="12" viewBox="0 0 13 12" fill="none" xmlns="http://www.w3.org/2000/svg">
<path d="M4.94629 5.37402C5.42954 5.37402 5.82129 4.98227 5.82129 4.49902C5.82129 4.01577 5.42954 3.62402 4.94629 3.62402C4.46304 3.62402 4.07129 4.01577 4.07129 4.49902C4.07129 4.98227 4.46304 5.37402 4.94629 5.37402Z" fill="#9E9E9E"/>
<path d="M7.8623 5.37402C8.34555 5.37402 8.7373 4.98227 8.7373 4.49902C8.7373 4.01577 8.34555 3.62402 7.8623 3.62402C7.37906 3.62402 6.9873 4.01577 6.9873 4.49902C6.9873 4.98227 7.37906 5.37402 7.8623 5.37402Z" fill="#9E9E9E"/>
<path d="M6.40462 0.124023C3.18812 0.124023 0.571289 2.21761 0.571289 4.79069C0.571289 6.48702 1.67787 8.00777 3.48796 8.83552V11.7907L6.60296 9.45502C9.72787 9.37102 12.238 7.31069 12.238 4.79069C12.238 2.21761 9.62112 0.124023 6.40462 0.124023ZM6.40462 8.29069H6.21037L4.65462 9.45736V8.04744L4.28071 7.90336C2.71271 7.29961 1.73796 6.10669 1.73796 4.79069C1.73796 2.86044 3.83154 1.29069 6.40462 1.29069C8.97771 1.29069 11.0713 2.86044 11.0713 4.79069C11.0713 6.72094 8.97771 8.29069 6.40462 8.29069Z" fill="#9E9E9E"/>
</svg>
