<svg width="11" height="14" viewBox="0 0 11 14" fill="none" xmlns="http://www.w3.org/2000/svg">
<path d="M3.86604 9.49041H3.87225M3.86604 2.66154H2.62443C2.29513 2.66154 1.97932 2.79235 1.74647 3.0252C1.51362 3.25804 1.38281 3.57385 1.38281 3.90315V11.3528C1.38281 11.6821 1.51362 11.9979 1.74647 12.2308C1.97932 12.4636 2.29513 12.5944 2.62443 12.5944H8.83249C9.16179 12.5944 9.4776 12.4636 9.71045 12.2308C9.94329 11.9979 10.0741 11.6821 10.0741 11.3528V3.90315C10.0741 3.57385 9.94329 3.25804 9.71045 3.0252C9.4776 2.79235 9.16179 2.66154 8.83249 2.66154H7.59088H3.86604ZM3.86604 2.66154C3.86604 2.99083 3.99685 3.30664 4.2297 3.53949C4.46255 3.77234 4.77836 3.90315 5.10765 3.90315H6.34927C6.67856 3.90315 6.99437 3.77234 7.22722 3.53949C7.46007 3.30664 7.59088 2.99083 7.59088 2.66154H3.86604ZM3.86604 2.66154C3.86604 2.33224 3.99685 2.01643 4.2297 1.78358C4.46255 1.55073 4.77836 1.41992 5.10765 1.41992H6.34927C6.67856 1.41992 6.99437 1.55073 7.22722 1.78358C7.46007 2.01643 7.59088 2.33224 7.59088 2.66154H3.86604ZM5.72846 7.00718H7.59088H5.72846ZM5.72846 9.49041H7.59088H5.72846ZM3.86604 7.00718H3.87225H3.86604Z" stroke="#9E9E9E" stroke-width="1.24161" stroke-linecap="round" stroke-linejoin="round"/>
</svg>
