<svg width="14" height="12" viewBox="0 0 14 12" fill="none" xmlns="http://www.w3.org/2000/svg">
<path d="M6.90128 11.0065C6.81958 11.007 6.73859 10.9914 6.66295 10.9605C6.58731 10.9296 6.51851 10.884 6.46051 10.8265L1.63684 5.99664C1.03178 5.38525 0.692383 4.55982 0.692383 3.69965C0.692383 2.83948 1.03178 2.01405 1.63684 1.40267C2.24663 0.794593 3.07266 0.453125 3.93382 0.453125C4.79499 0.453125 5.62101 0.794593 6.23081 1.40267L6.90128 2.07314L7.57175 1.40267C8.18154 0.794593 9.00757 0.453125 9.86874 0.453125C10.7299 0.453125 11.5559 0.794593 12.1657 1.40267C12.7708 2.01405 13.1102 2.83948 13.1102 3.69965C13.1102 4.55982 12.7708 5.38525 12.1657 5.99664L7.34205 10.8265C7.28404 10.884 7.21525 10.9296 7.13961 10.9605C7.06397 10.9914 6.98298 11.007 6.90128 11.0065ZM3.93382 1.69445C3.67102 1.69326 3.41059 1.74422 3.16763 1.84439C2.92466 1.94456 2.70399 2.09195 2.51838 2.278C2.14345 2.65491 1.93299 3.16492 1.93299 3.69655C1.93299 4.22818 2.14345 4.73819 2.51838 5.11509L6.90128 9.50419L11.2842 5.11509C11.6591 4.73819 11.8696 4.22818 11.8696 3.69655C11.8696 3.16492 11.6591 2.65491 11.2842 2.278C10.9015 1.91651 10.3951 1.71512 9.86874 1.71512C9.34235 1.71512 8.83592 1.91651 8.4533 2.278L7.34205 3.39546C7.28434 3.45364 7.21568 3.49983 7.14003 3.53135C7.06438 3.56286 6.98323 3.57909 6.90128 3.57909C6.81933 3.57909 6.73818 3.56286 6.66253 3.53135C6.58688 3.49983 6.51822 3.45364 6.46051 3.39546L5.34926 2.278C5.16366 2.09195 4.94298 1.94456 4.70002 1.84439C4.45705 1.74422 4.19663 1.69326 3.93382 1.69445Z" fill="#9E9E9E"/>
</svg>
