<svg width="11" height="12" viewBox="0 0 11 12" fill="none" xmlns="http://www.w3.org/2000/svg">
<path d="M5.01586 8.95539C5.94544 8.95539 6.83694 8.58612 7.49425 7.92881C8.15156 7.2715 8.52083 6.38 8.52083 5.45043C8.52083 4.52086 8.15156 3.62936 7.49425 2.97205C6.83694 2.31474 5.94544 1.94547 5.01586 1.94547C4.08629 1.94547 3.19479 2.31474 2.53748 2.97205C1.88017 3.62936 1.5109 4.52086 1.5109 5.45043C1.5109 6.38 1.88017 7.2715 2.53748 7.92881C3.19479 8.58612 4.08629 8.95539 5.01586 8.95539ZM8.70776 8.31632L10.7991 10.4076C10.8548 10.4615 10.8993 10.526 10.9298 10.5973C10.9604 10.6686 10.9765 10.7453 10.9771 10.8228C10.9777 10.9004 10.9629 10.9773 10.9334 11.0491C10.904 11.1209 10.8606 11.186 10.8057 11.2409C10.7508 11.2957 10.6856 11.339 10.6138 11.3683C10.5419 11.3976 10.465 11.4124 10.3874 11.4116C10.3099 11.4109 10.2332 11.3947 10.162 11.3641C10.0907 11.3334 10.0263 11.2889 9.97247 11.233L7.88117 9.14174C6.94211 9.87068 5.76055 10.2144 4.57702 10.1028C3.39348 9.99124 2.29695 9.43283 1.51064 8.54126C0.724326 7.64968 0.307345 6.49196 0.34458 5.30376C0.381815 4.11557 0.870467 2.98622 1.71106 2.14563C2.55165 1.30504 3.681 0.816386 4.8692 0.779151C6.05739 0.741916 7.21512 1.1589 8.10669 1.94521C8.99827 2.73152 9.55668 3.82805 9.66824 5.01158C9.77979 6.19511 9.43612 7.37668 8.70718 8.31574L8.70776 8.31632Z" fill="#666"/>
</svg>
